<svg id="svg" version="1.1" xmlns="http://www.w3.org/2000/svg" xmlns:xlink="http://www.w3.org/1999/xlink" width="400" height="616" viewBox="0, 0, 400,616"><g id="svgg"><path id="path0" d="M156.001 138.399 C 110.476 183.924,103.979 225.580,133.860 280.351 C 135.166 282.743,123.493 289.308,107.921 294.939 C 72.985 307.572,21.411 400.085,25.546 442.703 C 33.929 529.111,366.071 529.111,374.454 442.703 C 378.589 400.085,327.015 307.572,292.079 294.939 C 276.507 289.308,264.834 282.743,266.140 280.351 C 294.895 227.644,288.686 186.832,244.838 140.340 C 211.481 104.970,189.901 104.499,156.001 138.399 M226.190 142.000 C 238.091 155.151,236.503 156.000,200.000 156.000 C 163.497 156.000,161.909 155.151,173.810 142.000 C 189.961 124.153,210.039 124.153,226.190 142.000 M244.258 184.285 C 256.657 197.986,256.490 198.630,241.554 194.724 C 232.799 192.435,218.286 194.495,209.303 199.302 C 197.479 205.631,191.474 205.621,187.548 199.268 C 184.565 194.442,173.515 192.139,162.992 194.151 C 146.875 197.232,145.403 195.949,153.652 186.009 C 176.014 159.065,220.665 158.215,244.258 184.285 M215.166 229.355 C 279.284 225.723,285.510 232.308,250.788 267.030 C 239.121 278.697,231.021 289.175,232.788 290.316 C 234.555 291.456,252.200 297.702,272.000 304.195 C 330.456 323.364,381.735 442.274,342.215 467.016 C 331.371 473.805,325.879 472.271,316.470 459.823 C 301.371 439.849,300.997 432.000,315.144 432.000 C 327.157 432.000,337.915 412.582,330.185 404.852 C 327.593 402.260,320.436 404.319,314.280 409.427 C 304.832 417.269,303.943 412.273,308.575 377.358 L 314.061 336.000 259.791 336.000 C 207.255 336.000,205.954 335.521,219.080 321.017 C 232.124 306.604,231.427 306.066,200.757 306.870 C 170.791 307.656,169.644 308.556,181.677 321.853 C 193.801 335.250,191.600 336.000,140.126 336.000 L 85.771 336.000 90.596 376.739 C 94.797 412.208,93.881 416.201,83.517 407.599 C 76.970 402.166,69.816 399.518,67.618 401.715 C 60.430 408.903,73.446 432.000,84.684 432.000 C 93.485 432.000,93.853 435.959,86.544 452.000 C 69.006 490.493,34.574 466.690,43.277 422.088 C 54.313 365.528,89.259 316.909,128.014 304.195 C 147.806 297.702,165.118 291.783,166.485 291.043 C 167.852 290.303,159.752 280.479,148.485 269.212 C 121.849 242.576,121.800 202.256,148.430 224.357 C 154.041 229.013,182.966 231.180,215.166 229.355 M296.000 361.078 C 296.000 366.070,291.778 393.070,286.617 421.078 L 277.234 472.000 200.000 472.000 L 122.766 472.000 113.383 421.078 C 108.222 393.070,104.000 366.070,104.000 361.078 C 104.000 354.812,133.736 352.000,200.000 352.000 C 266.264 352.000,296.000 354.812,296.000 361.078 " stroke="none" fill="#000000" fill-rule="evenodd"></path></g></svg>